<mxfile host="app.diagrams.net" agent="Mozilla/5.0 (Windows NT 10.0; Win64; x64) AppleWebKit/537.36 (KHTML, like Gecko) Chrome/134.0.0.0 Safari/537.36 Edg/134.0.0.0" version="26.0.16">
  <diagram name="Page-1" id="Zj8bzgwwG2mClV4CN3vp">
    <mxGraphModel dx="1239" dy="686" grid="1" gridSize="10" guides="1" tooltips="1" connect="1" arrows="1" fold="1" page="1" pageScale="1" pageWidth="850" pageHeight="1100" math="0" shadow="0">
      <root>
        <mxCell id="0" />
        <mxCell id="1" parent="0" />
        <mxCell id="RM_DG2_5r83rVcYBaJv3-5" style="edgeStyle=orthogonalEdgeStyle;rounded=0;orthogonalLoop=1;jettySize=auto;html=1;exitX=0.5;exitY=1;exitDx=0;exitDy=0;entryX=0.5;entryY=0;entryDx=0;entryDy=0;" edge="1" parent="1" source="RM_DG2_5r83rVcYBaJv3-1" target="RM_DG2_5r83rVcYBaJv3-3">
          <mxGeometry relative="1" as="geometry" />
        </mxCell>
        <mxCell id="RM_DG2_5r83rVcYBaJv3-1" value="Start" style="rounded=0;whiteSpace=wrap;html=1;" vertex="1" parent="1">
          <mxGeometry x="330" y="60" width="120" height="60" as="geometry" />
        </mxCell>
        <mxCell id="RM_DG2_5r83rVcYBaJv3-3" value="Does Eligible check for Windows 11 updates" style="ellipse;whiteSpace=wrap;html=1;" vertex="1" parent="1">
          <mxGeometry x="330" y="200" width="120" height="80" as="geometry" />
        </mxCell>
        <mxCell id="RM_DG2_5r83rVcYBaJv3-6" value="" style="shape=flexArrow;endArrow=classic;html=1;rounded=0;width=22;endSize=2.97;exitX=1;exitY=0.5;exitDx=0;exitDy=0;entryX=0;entryY=0.5;entryDx=0;entryDy=0;" edge="1" parent="1" source="RM_DG2_5r83rVcYBaJv3-3" target="RM_DG2_5r83rVcYBaJv3-7">
          <mxGeometry width="50" height="50" relative="1" as="geometry">
            <mxPoint x="520" y="210" as="sourcePoint" />
            <mxPoint x="530" y="230" as="targetPoint" />
          </mxGeometry>
        </mxCell>
        <mxCell id="RM_DG2_5r83rVcYBaJv3-7" value="&lt;ul&gt;&lt;li&gt;Must have at least 7.8GB free of Memory&lt;/li&gt;&lt;li&gt;Must have 200GB at least OS disk&lt;/li&gt;&lt;li&gt;Must have at least 64GB free on OS disk&lt;/li&gt;&lt;li&gt;Must be at least 4 years old or newer&lt;/li&gt;&lt;/ul&gt;" style="shape=process;whiteSpace=wrap;html=1;backgroundOutline=1;align=left;" vertex="1" parent="1">
          <mxGeometry x="580" y="140" width="220" height="120" as="geometry" />
        </mxCell>
      </root>
    </mxGraphModel>
  </diagram>
</mxfile>
